<?xml version="1.0" encoding="UTF-8" standalone="no"?>
<svg
   xmlns:dc="http://purl.org/dc/elements/1.1/"
   xmlns:cc="http://creativecommons.org/ns#"
   xmlns:rdf="http://www.w3.org/1999/02/22-rdf-syntax-ns#"
   xmlns:svg="http://www.w3.org/2000/svg"
   xmlns="http://www.w3.org/2000/svg"
   xmlns:sodipodi="http://sodipodi.sourceforge.net/DTD/sodipodi-0.dtd"
   xmlns:inkscape="http://www.inkscape.org/namespaces/inkscape"
   width="440"
   height="64"
   viewBox="0 0 352 51.2"
   version="1.1"
   id="svg2"
   inkscape:version="0.48.4 r9939"
   sodipodi:docname="logo.svg"
   inkscape:export-filename="/home/intelimen/MoovWebProjects/soul/assets/images/logo.png"
   inkscape:export-xdpi="90"
   inkscape:export-ydpi="90">
  <metadata
     id="metadata32">
    <rdf:RDF>
      <cc:Work
         rdf:about="">
        <dc:format>image/svg+xml</dc:format>
        <dc:type
           rdf:resource="http://purl.org/dc/dcmitype/StillImage" />
        <dc:title />
      </cc:Work>
    </rdf:RDF>
  </metadata>
  <defs
     id="defs30" />
  <sodipodi:namedview
     pagecolor="#ffffff"
     bordercolor="#666666"
     borderopacity="1"
     objecttolerance="10"
     gridtolerance="10"
     guidetolerance="10"
     inkscape:pageopacity="0"
     inkscape:pageshadow="2"
     inkscape:window-width="1301"
     inkscape:window-height="744"
     id="namedview28"
     showgrid="false"
     inkscape:zoom="1.3272727"
     inkscape:cx="110"
     inkscape:cy="20"
     inkscape:window-x="65"
     inkscape:window-y="306"
     inkscape:window-maximized="1"
     inkscape:current-layer="svg2"
     inkscape:snap-page="false"
     inkscape:snap-grids="false" />
  <path
     style="fill:#202a7a"
     inkscape:connector-curvature="0"
     d="M 60.890459,11.082377 C 64.019271,6.5126656 69.021252,3.07509 74.68193,2.931 84.994657,2.3958086 95.307384,2.7457414 105.62011,2.8074943 103.06766,6.4303284 100.37112,9.9502412 97.921588,13.675997 116.40628,3.5896971 138.18445,1.9841229 158.78932,3.9396299 c 6.83398,0.9468771 14.34725,2.1201814 19.47273,7.2045001 3.51992,3.478744 2.40836,8.810074 2.51129,13.235695 -9.59228,0.741034 -19.18456,1.132136 -28.79742,1.461484 -3.78751,-9.756951 -15.5823,-9.427602 -24.14537,-7.719107 -6.46346,1.00863 -11.9183,4.940229 -15.91165,9.983379 -9.61286,1.029214 -19.246304,1.482068 -28.900334,1.626158 3.45816,-5.990027 8.460141,-10.786165 13.359201,-15.561719 -4.61088,1.317394 -9.633446,1.811417 -13.791471,4.343284 -4.240363,3.31407 -7.142747,7.945534 -10.395064,12.144728 -8.974748,0.926293 -17.970081,1.111551 -26.965413,1.502653 5.743015,-6.62814 10.621491,-13.914977 15.66464,-21.078308 z"
     id="path6" />
  <path
     style="fill:#202a7a"
     inkscape:connector-curvature="0"
     d="M 204.93929,2.8692471 C 214.2228,2.6222357 223.50631,2.64282 232.78982,2.78691 c -5.02256,6.504634 -10.16863,12.926931 -15.43821,19.246306 -10.55974,0.823372 -21.11948,1.399732 -31.6998,2.037845 6.91632,-6.62814 12.65934,-14.3060784 19.28748,-21.2018139 z"
     id="path8" />
  <path
     style="fill:#202a7a"
     inkscape:connector-curvature="0"
     d="m 260.26984,2.9104157 c 9.42761,0.041169 18.85521,-0.14409 28.28281,0.1029214 -4.26095,5.2901613 -8.72774,10.4156479 -13.00927,15.7058099 -9.63344,0.823371 -19.30806,0.988045 -28.9415,1.420315 4.09627,-6.092948 8.70715,-11.8153794 13.66796,-17.2290463 z"
     id="path10" />
  <path
     style="fill:#202a7a"
     inkscape:connector-curvature="0"
     d="m 295.36605,2.8280785 c 9.92163,-0.061753 19.86383,-0.3293485 29.78546,0.1646743 -3.21115,4.6520484 -6.75165,9.0365012 -10.3539,13.3797852 -10.39506,0.905709 -20.85188,1.070383 -31.28811,1.646743 3.5405,-5.372499 7.5956,-10.3950641 11.85655,-15.1912025 z"
     id="path12" />
  <path
     style="fill:#fefefd"
     inkscape:connector-curvature="0"
     d="m 82.586296,18.513304 c 4.158025,-2.531867 9.180591,-3.02589 13.791471,-4.343284 -4.89906,4.775554 -9.901041,9.571692 -13.359201,15.561719 -3.622834,0.226427 -7.225084,0.596944 -10.827334,0.926293 3.252317,-4.199194 6.154701,-8.830658 10.395064,-12.144728 z"
     id="path14" />
  <path
     style="fill:#db251d"
     inkscape:connector-curvature="0"
     d="m 314.79761,16.372538 c 12.20649,-0.946877 24.43355,-1.502653 36.66062,-1.87317 -5.3725,7.328006 -11.09493,14.388415 -16.94087,21.304735 -1.77025,2.943553 -5.3725,2.243687 -8.2543,2.387777 -19.88442,-0.226427 -39.76884,-0.535191 -59.65326,-0.535191 -1.66732,0.02058 -5.00198,0.02058 -6.6693,0.02058 -28.65333,-0.08234 -57.32724,-1.00863 -85.98056,-0.946877 -0.98805,0 -2.98472,0.02058 -3.97277,0.04117 -29.31202,-0.57636 -58.64463,-0.679282 -87.95665,-0.946878 -5.063734,-0.02058 -10.127468,0.14409 -15.191202,0.08234 -18.711115,-0.679282 -37.442815,-0.308765 -56.174514,-0.06175 2.922969,-2.058429 6.545803,-1.832002 9.94221,-2.037845 8.213129,-0.28818 16.405675,-1.049798 24.618805,-1.646742 8.995332,-0.391102 17.990665,-0.57636 26.965413,-1.502653 3.60225,-0.329349 7.2045,-0.699866 10.827334,-0.926293 9.65403,-0.14409 19.287474,-0.596944 28.900334,-1.626158 13.3592,-0.555776 26.7184,-1.276226 40.05702,-2.264272 9.61286,-0.329348 19.20514,-0.72045 28.79742,-1.461484 1.21447,-0.08234 3.664,-0.226427 4.87847,-0.308764 10.58032,-0.638113 21.14006,-1.214473 31.6998,-2.037845 9.73637,-0.535191 19.5139,-1.029214 29.25027,-1.893754 9.63344,-0.43227 19.30806,-0.596944 28.9415,-1.420315 2.65538,-0.247012 5.31075,-0.494023 7.96612,-0.699866 10.43623,-0.57636 20.89305,-0.741034 31.28811,-1.646743 z"
     id="path16" />
  <path
     style="fill:#fefefd"
     inkscape:connector-curvature="0"
     d="m 111.9189,28.105581 c 3.99335,-5.04315 9.44819,-8.974749 15.91165,-9.983379 8.56307,-1.708495 20.35786,-2.037844 24.14537,7.719107 -13.33862,0.988046 -26.69782,1.708496 -40.05702,2.264272 z"
     id="path18" />
  <path
     style="fill:#202a7a"
     inkscape:connector-curvature="0"
     d="m 10.664804,35.845272 c 18.731699,-0.247012 37.463399,-0.617529 56.174514,0.06175 -2.614204,7.245668 -9.386434,13.009268 -17.311384,12.926931 -16.570349,0.247011 -33.161283,0.04117 -49.73163242,0.06175 C 3.3573829,44.490671 7.3713185,40.456152 10.664804,35.845272 z"
     id="path20" />
  <path
     style="fill:#202a7a"
     inkscape:connector-curvature="0"
     d="m 82.03052,35.824687 c 29.31202,0.267596 58.64463,0.370518 87.95665,0.946878 -16.241,11.527199 -37.29872,13.379785 -56.62737,12.721088 -10.4774,-1.15272 -23.239656,-0.86454 -30.732336,-9.571693 -0.14409,-1.00863 -0.43227,-3.067058 -0.596944,-4.096273 z"
     id="path22" />
  <path
     style="fill:#202a7a"
     inkscape:connector-curvature="0"
     d="m 173.95994,36.730396 c 28.65332,-0.06175 57.32723,0.86454 85.98056,0.946877 -3.04648,3.725756 -6.21646,7.389758 -9.34527,11.053761 -22.45745,0.473439 -44.93549,0.04117 -67.41353,0.226427 -4.17861,0.349933 -8.04846,-1.255641 -11.38311,-3.705171 0.67928,-2.840631 1.39973,-5.701847 2.16135,-8.521894 z"
     id="path24" />
  <path
     style="fill:#202a7a"
     inkscape:connector-curvature="0"
     d="m 266.6098,37.656689 c 19.88442,0 39.76884,0.308764 59.65326,0.535191 -2.55245,3.581666 -5.16665,7.101578 -7.73969,10.66266 -20.21377,0.391101 -40.44812,0.164674 -60.66189,0.164674 2.86122,-3.828677 5.84594,-7.554433 8.74832,-11.362525 z"
     id="path26" />
</svg>
